<svg xmlns="http://www.w3.org/2000/svg" id="llmviz-ff664f" width="1880" height="2257" viewBox="0 0 1880 2257" role="img">
<style>
  #llmviz-ff664f text { font-family: Arial, "Helvetica Neue", "Liberation Sans", "DejaVu Sans", sans-serif; fill: #000000; }
  #llmviz-ff664f .mono { font-family: "Courier New", "Liberation Mono", "DejaVu Sans Mono", monospace; }
  #llmviz-ff664f .accent { fill: #ff664f; }
  #llmviz-ff664f .white { fill: #ffffff; }
  #llmviz-ff664f .surface { fill: #ffffff; }
  #llmviz-ff664f .pill { fill: #ffffff; stroke: #000000; stroke-width: 2.5; }
  #llmviz-ff664f .outer { fill: #d5d5d5; stroke: #000000; stroke-width: 2.5; }
  #llmviz-ff664f .blockc { fill: #ff9889; stroke: #000000; stroke-width: 2.5; }
  #llmviz-ff664f .attnbox { fill: #5e5e5e; stroke: #000000; stroke-width: 2.5; }
  #llmviz-ff664f .inset { fill: #cccccc; stroke: #000000; stroke-width: 3; stroke-dasharray: 2 7;
            stroke-linecap: round; }
  #llmviz-ff664f .inset-accent { fill: #ffffff; stroke: #ff664f; stroke-width: 3.5;
                   stroke-dasharray: 2 8; stroke-linecap: round; }
  #llmviz-ff664f .moepill { fill: #cccccc; stroke: #000000; stroke-width: 2.5; }
  #llmviz-ff664f .router { fill: #ffffff; stroke: #ff664f; stroke-width: 3.5; }
  #llmviz-ff664f .tagdark { fill: #000000; }
  #llmviz-ff664f .tagaccent { fill: #ff664f; }
  #llmviz-ff664f .flow { stroke: #000000; stroke-width: 2.5; fill: none; }
  #llmviz-ff664f .flowhead { fill: #000000; }
  #llmviz-ff664f .leader { stroke: #000000; stroke-width: 3; stroke-dasharray: 2 7; fill: none;
             stroke-linecap: round; }
  #llmviz-ff664f .leader-accent { stroke: #ff664f; stroke-width: 4; stroke-dasharray: 2 8; fill: none;
                    stroke-linecap: round; }
  #llmviz-ff664f .plusc { fill: #ffffff; stroke: #000000; stroke-width: 2.5; }
  #llmviz-ff664f .accent-dark { fill: #ffab9e; }</style>
<rect width="1880" height="2257" class="surface"/>
<rect x="150" y="165" width="640" height="1086" rx="40" class="outer" />
<text x="470" y="74" font-size="46" class="accent" text-anchor="middle" font-weight="800">Deepseek V3</text>
<line x1="470" y1="261" x2="470" y2="145" class="flow"/>
<path d="M 476.46 145 L 470 128 L 463.54 145 Z" class="flowhead"/>
<rect x="315" y="261" width="310" height="52" rx="14" class="pill" />
<text x="470" y="294.92" font-size="22" class="" text-anchor="middle">Linear output layer</text>
<rect x="340" y="401" width="260" height="50" rx="14" class="pill" />
<text x="470" y="433.92" font-size="22" class="" text-anchor="middle">Final RMSNorm</text>
<rect x="215" y="543" width="510" height="536" rx="34" class="blockc" />
<circle cx="470" cy="593" r="15" class="plusc" />
<line x1="457.25" y1="593" x2="482.75" y2="593" class="flow"/>
<line x1="470" y1="580.25" x2="470" y2="605.75" class="flow"/>
<rect x="365" y="629" width="210" height="48" rx="14" class="moepill" />
<text x="470" y="660" font-size="22" class="" text-anchor="middle">MoE</text>
<rect x="350" y="717" width="240" height="48" rx="14" class="pill" />
<text x="470" y="748.92" font-size="22" class="" text-anchor="middle">RMSNorm 2</text>
<circle cx="470" cy="825" r="15" class="plusc" />
<line x1="457.25" y1="825" x2="482.75" y2="825" class="flow"/>
<line x1="470" y1="812.25" x2="470" y2="837.75" class="flow"/>
<rect x="315" y="857" width="310" height="96" rx="16" class="attnbox" />
<text x="379.525" y="897" font-size="23" font-weight="400" class="white" xml:space="preserve">Multi-head </text>
<text x="496.526" y="897" font-size="23" font-weight="400" class="accent-dark" xml:space="preserve">Latent</text>
<text x="424.605" y="927" font-size="23" font-weight="400" class="white" xml:space="preserve">Attention</text>
<rect x="350" y="995" width="240" height="48" rx="14" class="pill" />
<text x="470" y="1026.92" font-size="22" class="" text-anchor="middle">RMSNorm 1</text>
<line x1="470" y1="401" x2="470" y2="333" class="flow"/>
<path d="M 476.46 333 L 470 316 L 463.54 333 Z" class="flowhead"/>
<line x1="470" y1="578" x2="470" y2="471" class="flow"/>
<path d="M 476.46 471 L 470 454 L 463.54 471 Z" class="flowhead"/>
<line x1="470" y1="629" x2="470" y2="627" class="flow"/>
<path d="M 476.46 627 L 470 610 L 463.54 627 Z" class="flowhead"/>
<line x1="470" y1="857" x2="470" y2="859" class="flow"/>
<path d="M 476.46 859 L 470 842 L 463.54 859 Z" class="flowhead"/>
<line x1="470" y1="717" x2="470" y2="697" class="flow"/>
<path d="M 476.46 697 L 470 680 L 463.54 697 Z" class="flowhead"/>
<line x1="470" y1="810" x2="470" y2="785" class="flow"/>
<path d="M 476.46 785 L 470 768 L 463.54 785 Z" class="flowhead"/>
<line x1="470" y1="995" x2="470" y2="973" class="flow"/>
<path d="M 476.46 973 L 470 956 L 463.54 973 Z" class="flowhead"/>
<path d="M 470.0 1063 L 665.0 1063 L 665.0 825" class="flow" />
<line x1="665" y1="825" x2="504" y2="825" class="flow"/>
<path d="M 504 818.54 L 487 825 L 504 831.46 Z" class="flowhead"/>
<path d="M 470.0 787 L 665.0 787 L 665.0 593" class="flow" />
<line x1="665" y1="593" x2="504" y2="593" class="flow"/>
<path d="M 504 586.54 L 487 593 L 504 599.46 Z" class="flowhead"/>
<rect x="40" y="879" width="210" height="52" rx="14" class="pill" />
<text x="145" y="913" font-size="22" class="" text-anchor="middle">RoPE</text>
<line x1="250" y1="905" x2="296" y2="905" class="flow"/>
<path d="M 296 911.46 L 313 905 L 296 898.54 Z" class="flowhead"/>
<text x="189" y="1101" font-size="140" class="" text-anchor="middle" font-weight="300">{</text>
<text x="57" y="1067" font-size="34" font-weight="700" class="accent" xml:space="preserve">61 ×</text>
<line x1="470" y1="1155" x2="470" y2="1063" class="flow"/>
<path d="M 476.46 1063 L 470 1046 L 463.54 1063 Z" class="flowhead"/>
<rect x="300" y="1155" width="340" height="52" rx="14" class="pill" />
<text x="470" y="1188.92" font-size="22" class="" text-anchor="middle">Token embedding layer</text>
<line x1="470" y1="1317" x2="470" y2="1228" class="flow"/>
<path d="M 476.46 1228 L 470 1211 L 463.54 1228 Z" class="flowhead"/>
<rect x="345" y="1317" width="250" height="50" rx="14" class="pill" />
<text x="470" y="1349.92" font-size="22" class="" text-anchor="middle">Tokenized text</text>
<line x1="470" y1="1429" x2="470" y2="1388" class="flow"/>
<path d="M 476.46 1388 L 470 1371 L 463.54 1388 Z" class="flowhead"/>
<text x="470" y="1467" font-size="24" class="mono" text-anchor="middle">Sample input text</text>
<text x="660" y="148" font-size="21" font-weight="700" class="" xml:space="preserve">Vocabulary size of </text>
<text x="853.171" y="148" font-size="21" font-weight="700" class="accent" xml:space="preserve">129k</text>
<line x1="682" y1="162" x2="610" y2="258" class="leader"/>
<text x="18" y="1145" font-size="21" font-weight="700" class="" xml:space="preserve">Supported</text>
<text x="18" y="1175" font-size="21" font-weight="700" class="" xml:space="preserve">context length</text>
<text x="18" y="1205" font-size="21" font-weight="700" class="" xml:space="preserve">of </text>
<text x="46.5936" y="1205" font-size="21" font-weight="700" class="accent" xml:space="preserve">160k</text>
<text x="96.2544" y="1205" font-size="21" font-weight="700" class="" xml:space="preserve"> tokens</text>
<line x1="44" y1="1119" x2="58" y2="937" class="leader"/>
<text x="800" y="1199" font-size="21" font-weight="700" class="accent" xml:space="preserve">128 </text>
<text x="843.814" y="1199" font-size="21" font-weight="700" class="" xml:space="preserve">heads</text>
<line x1="790" y1="1175" x2="622" y2="945" class="leader"/>
<text x="680" y="1303" font-size="21" font-weight="700" class="" xml:space="preserve">Embedding</text>
<text x="680" y="1333" font-size="21" font-weight="700" class="" xml:space="preserve">dimension of </text>
<text x="819.436" y="1333" font-size="21" font-weight="700" class="accent" xml:space="preserve">7,168</text>
<line x1="715" y1="1273" x2="646" y2="1187" class="leader"/>
<text x="14" y="1309" font-size="21" font-weight="700" class="" xml:space="preserve">First </text>
<text x="68.2808" y="1309" font-size="21" font-weight="700" class="accent" xml:space="preserve">3</text>
<text x="82.901" y="1309" font-size="21" font-weight="700" class="" xml:space="preserve"> blocks use</text>
<text x="14" y="1339" font-size="21" font-weight="700" class="" xml:space="preserve">dense FFN with</text>
<text x="14" y="1369" font-size="21" font-weight="700" class="" xml:space="preserve">hidden size </text>
<text x="137.123" y="1369" font-size="21" font-weight="700" class="accent" xml:space="preserve">18,432</text>
<text x="14" y="1399" font-size="21" font-weight="700" class="" xml:space="preserve">instead of MoE</text>
<line x1="252" y1="1295" x2="281" y2="1055" class="leader"/>
<rect x="1090" y="165" width="640" height="1086" rx="40" class="outer" />
<text x="1410" y="74" font-size="46" class="accent" text-anchor="middle" font-weight="800">Llama3 (8B)</text>
<line x1="1410" y1="261" x2="1410" y2="145" class="flow"/>
<path d="M 1416.46 145 L 1410 128 L 1403.54 145 Z" class="flowhead"/>
<rect x="1255" y="261" width="310" height="52" rx="14" class="pill" />
<text x="1410" y="294.92" font-size="22" class="" text-anchor="middle">Linear output layer</text>
<rect x="1280" y="401" width="260" height="50" rx="14" class="pill" />
<text x="1410" y="433.92" font-size="22" class="" text-anchor="middle">Final RMSNorm</text>
<rect x="1155" y="543" width="510" height="536" rx="34" class="blockc" />
<circle cx="1410" cy="593" r="15" class="plusc" />
<line x1="1397.25" y1="593" x2="1422.75" y2="593" class="flow"/>
<line x1="1410" y1="580.25" x2="1410" y2="605.75" class="flow"/>
<rect x="1305" y="629" width="210" height="48" rx="14" class="moepill" />
<text x="1410" y="660" font-size="22" class="" text-anchor="middle">Feed forward</text>
<rect x="1290" y="717" width="240" height="48" rx="14" class="pill" />
<text x="1410" y="748.92" font-size="22" class="" text-anchor="middle">RMSNorm 2</text>
<circle cx="1410" cy="825" r="15" class="plusc" />
<line x1="1397.25" y1="825" x2="1422.75" y2="825" class="flow"/>
<line x1="1410" y1="812.25" x2="1410" y2="837.75" class="flow"/>
<rect x="1255" y="857" width="310" height="96" rx="16" class="attnbox" />
<text x="1290.12" y="897" font-size="23" font-weight="400" class="white" xml:space="preserve">Masked </text>
<text x="1380.27" y="897" font-size="23" font-weight="400" class="accent-dark" xml:space="preserve">grouped-query</text>
<text x="1365.88" y="927" font-size="23" font-weight="400" class="white" xml:space="preserve">attention</text>
<rect x="1290" y="995" width="240" height="48" rx="14" class="pill" />
<text x="1410" y="1026.92" font-size="22" class="" text-anchor="middle">RMSNorm 1</text>
<line x1="1410" y1="401" x2="1410" y2="333" class="flow"/>
<path d="M 1416.46 333 L 1410 316 L 1403.54 333 Z" class="flowhead"/>
<line x1="1410" y1="578" x2="1410" y2="471" class="flow"/>
<path d="M 1416.46 471 L 1410 454 L 1403.54 471 Z" class="flowhead"/>
<line x1="1410" y1="629" x2="1410" y2="627" class="flow"/>
<path d="M 1416.46 627 L 1410 610 L 1403.54 627 Z" class="flowhead"/>
<line x1="1410" y1="857" x2="1410" y2="859" class="flow"/>
<path d="M 1416.46 859 L 1410 842 L 1403.54 859 Z" class="flowhead"/>
<line x1="1410" y1="717" x2="1410" y2="697" class="flow"/>
<path d="M 1416.46 697 L 1410 680 L 1403.54 697 Z" class="flowhead"/>
<line x1="1410" y1="810" x2="1410" y2="785" class="flow"/>
<path d="M 1416.46 785 L 1410 768 L 1403.54 785 Z" class="flowhead"/>
<line x1="1410" y1="995" x2="1410" y2="973" class="flow"/>
<path d="M 1416.46 973 L 1410 956 L 1403.54 973 Z" class="flowhead"/>
<path d="M 1410 1063 L 1605 1063 L 1605 825" class="flow" />
<line x1="1605" y1="825" x2="1444" y2="825" class="flow"/>
<path d="M 1444 818.54 L 1427 825 L 1444 831.46 Z" class="flowhead"/>
<path d="M 1410 787 L 1605 787 L 1605 593" class="flow" />
<line x1="1605" y1="593" x2="1444" y2="593" class="flow"/>
<path d="M 1444 586.54 L 1427 593 L 1444 599.46 Z" class="flowhead"/>
<rect x="980" y="879" width="210" height="52" rx="14" class="pill" />
<text x="1085" y="913" font-size="22" class="" text-anchor="middle">RoPE</text>
<line x1="1190" y1="905" x2="1236" y2="905" class="flow"/>
<path d="M 1236 911.46 L 1253 905 L 1236 898.54 Z" class="flowhead"/>
<text x="1129" y="1101" font-size="140" class="" text-anchor="middle" font-weight="300">{</text>
<text x="997" y="1067" font-size="34" font-weight="700" class="accent" xml:space="preserve">32 ×</text>
<line x1="1410" y1="1155" x2="1410" y2="1063" class="flow"/>
<path d="M 1416.46 1063 L 1410 1046 L 1403.54 1063 Z" class="flowhead"/>
<rect x="1240" y="1155" width="340" height="52" rx="14" class="pill" />
<text x="1410" y="1188.92" font-size="22" class="" text-anchor="middle">Token embedding layer</text>
<line x1="1410" y1="1317" x2="1410" y2="1228" class="flow"/>
<path d="M 1416.46 1228 L 1410 1211 L 1403.54 1228 Z" class="flowhead"/>
<rect x="1285" y="1317" width="250" height="50" rx="14" class="pill" />
<text x="1410" y="1349.92" font-size="22" class="" text-anchor="middle">Tokenized text</text>
<line x1="1410" y1="1429" x2="1410" y2="1388" class="flow"/>
<path d="M 1416.46 1388 L 1410 1371 L 1403.54 1388 Z" class="flowhead"/>
<text x="1410" y="1467" font-size="24" class="mono" text-anchor="middle">Sample input text</text>
<text x="1600" y="148" font-size="21" font-weight="700" class="" xml:space="preserve">Vocabulary size of </text>
<text x="1793.17" y="148" font-size="21" font-weight="700" class="accent" xml:space="preserve">128k</text>
<line x1="1622" y1="162" x2="1550" y2="258" class="leader"/>
<text x="958" y="1145" font-size="21" font-weight="700" class="" xml:space="preserve">Supported</text>
<text x="958" y="1175" font-size="21" font-weight="700" class="" xml:space="preserve">context length</text>
<text x="958" y="1205" font-size="21" font-weight="700" class="" xml:space="preserve">of </text>
<text x="986.594" y="1205" font-size="21" font-weight="700" class="accent" xml:space="preserve">8,192</text>
<text x="1042.09" y="1205" font-size="21" font-weight="700" class="" xml:space="preserve"> tokens</text>
<line x1="984" y1="1119" x2="998" y2="937" class="leader"/>
<text x="1740" y="1199" font-size="21" font-weight="700" class="accent" xml:space="preserve">32 </text>
<text x="1772.13" y="1199" font-size="21" font-weight="700" class="" xml:space="preserve">heads</text>
<text x="1740" y="1229" font-size="21" font-weight="700" class="accent" xml:space="preserve">8 </text>
<text x="1760.45" y="1229" font-size="21" font-weight="700" class="" xml:space="preserve">KV groups</text>
<line x1="1730" y1="1175" x2="1562" y2="945" class="leader"/>
<text x="1620" y="1303" font-size="21" font-weight="700" class="" xml:space="preserve">Embedding</text>
<text x="1620" y="1333" font-size="21" font-weight="700" class="" xml:space="preserve">dimension of </text>
<text x="1759.44" y="1333" font-size="21" font-weight="700" class="accent" xml:space="preserve">4,096</text>
<line x1="1655" y1="1273" x2="1586" y2="1187" class="leader"/>
<line x1="60" y1="1525" x2="1820" y2="1525" class="flow" stroke-width="2"/>
<text x="70" y="1581" font-size="27" class="" text-anchor="start" font-weight="700">Comparison</text>
<text x="900" y="1581" font-size="22" class="" text-anchor="end" font-weight="700">deepseek_v3</text>
<text x="1280" y="1581" font-size="22" class="" text-anchor="end" font-weight="700">llama3_8b</text>
<line x1="70" y1="1601" x2="1810" y2="1601" class="leader"/>
<text x="84" y="1631" font-size="20" class="" text-anchor="start">Total Params</text>
<text x="900" y="1631" font-size="20" class="" text-anchor="end" font-weight="700">671B</text>
<text x="1280" y="1631" font-size="20" class="" text-anchor="end" font-weight="700">8B</text>
<text x="1790" y="1631" font-size="22" class="accent" text-anchor="start" font-weight="800">≠</text>
<line x1="70" y1="1645" x2="1810" y2="1645" class="leader"/>
<text x="84" y="1675" font-size="20" class="" text-anchor="start">Active / Token</text>
<text x="900" y="1675" font-size="20" class="" text-anchor="end" font-weight="700">37.6B</text>
<text x="1280" y="1675" font-size="20" class="" text-anchor="end" font-weight="700">= total</text>
<text x="1790" y="1675" font-size="22" class="accent" text-anchor="start" font-weight="800">≠</text>
<line x1="70" y1="1689" x2="1810" y2="1689" class="leader"/>
<text x="84" y="1719" font-size="20" class="" text-anchor="start">Layers</text>
<text x="900" y="1719" font-size="20" class="" text-anchor="end" font-weight="700">61</text>
<text x="1280" y="1719" font-size="20" class="" text-anchor="end" font-weight="700">32</text>
<text x="1790" y="1719" font-size="22" class="accent" text-anchor="start" font-weight="800">≠</text>
<line x1="70" y1="1733" x2="1810" y2="1733" class="leader"/>
<text x="84" y="1763" font-size="20" class="" text-anchor="start">Context</text>
<text x="900" y="1763" font-size="20" class="" text-anchor="end" font-weight="700">160k</text>
<text x="1280" y="1763" font-size="20" class="" text-anchor="end" font-weight="700">8,192</text>
<text x="1790" y="1763" font-size="22" class="accent" text-anchor="start" font-weight="800">≠</text>
<line x1="70" y1="1777" x2="1810" y2="1777" class="leader"/>
<text x="84" y="1807" font-size="20" class="" text-anchor="start">Vocab</text>
<text x="900" y="1807" font-size="20" class="" text-anchor="end" font-weight="700">129,280</text>
<text x="1280" y="1807" font-size="20" class="" text-anchor="end" font-weight="700">128,256</text>
<text x="1790" y="1807" font-size="22" class="accent" text-anchor="start" font-weight="800">≠</text>
<line x1="70" y1="1821" x2="1810" y2="1821" class="leader"/>
<text x="84" y="1851" font-size="20" class="" text-anchor="start">Kv Cache / Token</text>
<text x="900" y="1851" font-size="20" class="" text-anchor="end" font-weight="700">68.6 KB</text>
<text x="1280" y="1851" font-size="20" class="" text-anchor="end" font-weight="700">128.0 KB</text>
<text x="1790" y="1851" font-size="22" class="accent" text-anchor="start" font-weight="800">≠</text>
<line x1="70" y1="1865" x2="1810" y2="1865" class="leader"/>
<text x="84" y="1895" font-size="20" class="" text-anchor="start">Attention</text>
<text x="900" y="1895" font-size="20" class="" text-anchor="end" font-weight="700">MLA · 128 heads / 128 KV</text>
<text x="1280" y="1895" font-size="20" class="" text-anchor="end" font-weight="700">GQA · 32 heads / 8 KV</text>
<text x="1790" y="1895" font-size="22" class="accent" text-anchor="start" font-weight="800">≠</text>
<line x1="70" y1="1909" x2="1810" y2="1909" class="leader"/>
<text x="84" y="1939" font-size="20" class="" text-anchor="start">Feed-forward</text>
<text x="900" y="1939" font-size="20" class="" text-anchor="end" font-weight="700">MoE · 256 experts, top-8</text>
<text x="1280" y="1939" font-size="20" class="" text-anchor="end" font-weight="700">dense · d_ff 14k</text>
<text x="1790" y="1939" font-size="22" class="accent" text-anchor="start" font-weight="800">≠</text>
<line x1="70" y1="1953" x2="1810" y2="1953" class="leader"/>
<text x="84" y="1983" font-size="20" class="" text-anchor="start">Positional</text>
<text x="900" y="1983" font-size="20" class="" text-anchor="end" font-weight="700">RoPE θ=10k</text>
<text x="1280" y="1983" font-size="20" class="" text-anchor="end" font-weight="700">RoPE θ=500k</text>
<text x="1790" y="1983" font-size="22" class="accent" text-anchor="start" font-weight="800">≠</text>
<line x1="70" y1="1997" x2="1810" y2="1997" class="leader"/>
<text x="84" y="2027" font-size="20" class="" text-anchor="start">Normalization</text>
<text x="900" y="2027" font-size="20" class="" text-anchor="end">RMSNorm</text>
<text x="1280" y="2027" font-size="20" class="" text-anchor="end">RMSNorm</text>
<line x1="70" y1="2041" x2="1810" y2="2041" class="leader"/>
<text x="84" y="2071" font-size="20" class="" text-anchor="start">Activation</text>
<text x="900" y="2071" font-size="20" class="" text-anchor="end">silu</text>
<text x="1280" y="2071" font-size="20" class="" text-anchor="end">silu</text>
<line x1="70" y1="2085" x2="1810" y2="2085" class="leader"/>
<text x="84" y="2115" font-size="20" class="" text-anchor="start">Hidden size</text>
<text x="900" y="2115" font-size="20" class="" text-anchor="end" font-weight="700">7,168</text>
<text x="1280" y="2115" font-size="20" class="" text-anchor="end" font-weight="700">4,096</text>
<text x="1790" y="2115" font-size="22" class="accent" text-anchor="start" font-weight="800">≠</text>
<line x1="70" y1="2129" x2="1810" y2="2129" class="leader"/>
<text x="84" y="2159" font-size="20" class="" text-anchor="start">Sliding window</text>
<text x="900" y="2159" font-size="20" class="" text-anchor="end">—</text>
<text x="1280" y="2159" font-size="20" class="" text-anchor="end">—</text>
<line x1="70" y1="2173" x2="1810" y2="2173" class="leader"/>
<text x="84" y="2203" font-size="20" class="" text-anchor="start">Embeddings</text>
<text x="900" y="2203" font-size="20" class="" text-anchor="end">untied</text>
<text x="1280" y="2203" font-size="20" class="" text-anchor="end">untied</text>
</svg>